<?xml version="1.0" encoding="utf-8"?>
<!-- Generator: Adobe Illustrator 21.1.0, SVG Export Plug-In . SVG Version: 6.00 Build 0)  -->
<svg version="1.1" id="Layer_1" xmlns="http://www.w3.org/2000/svg" xmlns:xlink="http://www.w3.org/1999/xlink" x="0px" y="0px"
	 viewBox="0 0 24 24" style="enable-background:new 0 0 24 24;" xml:space="preserve">
<g>
	<path d="M22.3,0H1.8C0.8,0,0,0.8,0,1.7v20.6c0,0.9,0.8,1.7,1.8,1.7h20.5c1,0,1.8-0.8,1.8-1.7V1.7C24.1,0.8,23.3,0,22.3,0z
		 M7.1,20.5H3.6V9h3.6V20.5z M5.4,7.5c-1.1,0-2.1-0.9-2.1-2.1s0.9-2.1,2.1-2.1c1.1,0,2.1,0.9,2.1,2.1C7.4,6.5,6.5,7.5,5.4,7.5z
		 M20.5,20.5h-3.6v-5.6c0-1.3,0-3-1.9-3c-1.9,0-2.1,1.5-2.1,2.9v5.7H9.4V9h3.4v1.6h0c0.5-0.9,1.6-1.9,3.4-1.9c3.6,0,4.3,2.4,4.3,5.5
		C20.5,14.2,20.5,20.5,20.5,20.5z"/>
</g>
</svg>
